<?xml version="1.0" encoding="UTF-8" standalone="no"?>
<!DOCTYPE svg PUBLIC "-//W3C//DTD SVG 1.1//EN" "http://www.w3.org/Graphics/SVG/1.1/DTD/svg11.dtd">
<svg width="100%" height="100%" viewBox="0 0 170 125" version="1.1" xmlns="http://www.w3.org/2000/svg" xmlns:xlink="http://www.w3.org/1999/xlink" xml:space="preserve" xmlns:serif="http://www.serif.com/" style="fill-rule:evenodd;clip-rule:evenodd;stroke-linecap:round;stroke-linejoin:round;stroke-miterlimit:1.5;">
    <g id="lashes" transform="matrix(1,0,0,-0.779367,-66.3572,139.268)">
        <g transform="matrix(1.54137,-0.00347414,0.0010921,0.484535,-69.1917,21.592)">
            <path d="M144.083,10.459C144.083,9.288 143.85,8.338 143.563,8.338L142.524,8.338C142.238,8.338 142.005,9.288 142.005,10.459L142.005,46.473C142.005,47.643 142.238,48.593 142.524,48.593L143.563,48.593C143.85,48.593 144.083,47.643 144.083,46.473L144.083,10.459Z" style="stroke:black;stroke-width:0.89px;"/>
        </g>
        <g transform="matrix(1.51615,0.277712,-0.0872995,0.476607,-33.433,-14.7534)">
            <path d="M144.083,10.432C144.083,9.276 143.85,8.338 143.563,8.338L142.524,8.338C142.238,8.338 142.005,9.276 142.005,10.432L142.005,46.5C142.005,47.655 142.238,48.593 142.524,48.593L143.563,48.593C143.85,48.593 144.083,47.655 144.083,46.5L144.083,10.432Z" style="stroke:black;stroke-width:0.92px;"/>
        </g>
        <g transform="matrix(1.40639,0.630797,-0.198293,0.442103,10.6651,-52.5274)">
            <path d="M144.083,10.319C144.083,9.226 143.85,8.338 143.563,8.338L142.524,8.338C142.238,8.338 142.005,9.226 142.005,10.319L142.005,46.612C142.005,47.705 142.238,48.593 142.524,48.593L143.563,48.593C143.85,48.593 144.083,47.705 144.083,46.612L144.083,10.319Z" style="stroke:black;stroke-width:0.96px;"/>
        </g>
        <g transform="matrix(1.15546,1.02018,-0.320696,0.363221,70.3298,-89.5667)">
            <path d="M144.083,10.094C144.083,9.125 143.85,8.338 143.563,8.338L142.524,8.338C142.238,8.338 142.005,9.125 142.005,10.094L142.005,46.837C142.005,47.806 142.238,48.593 142.524,48.593L143.563,48.593C143.85,48.593 144.083,47.806 144.083,46.837L144.083,10.094Z" style="stroke:black;stroke-width:1.04px;"/>
        </g>
        <g transform="matrix(-1.51615,0.277712,0.0872995,0.476607,336.059,-14.7534)">
            <path d="M144.083,10.432C144.083,9.276 143.85,8.338 143.563,8.338L142.524,8.338C142.238,8.338 142.005,9.276 142.005,10.432L142.005,46.5C142.005,47.655 142.238,48.593 142.524,48.593L143.563,48.593C143.85,48.593 144.083,47.655 144.083,46.5L144.083,10.432Z" style="stroke:black;stroke-width:0.92px;"/>
        </g>
        <g transform="matrix(-1.40639,0.630797,0.198293,0.442103,291.96,-52.5274)">
            <path d="M144.083,10.319C144.083,9.226 143.85,8.338 143.563,8.338L142.524,8.338C142.238,8.338 142.005,9.226 142.005,10.319L142.005,46.612C142.005,47.705 142.238,48.593 142.524,48.593L143.563,48.593C143.85,48.593 144.083,47.705 144.083,46.612L144.083,10.319Z" style="stroke:black;stroke-width:0.96px;"/>
        </g>
        <g transform="matrix(-1.15546,1.02018,0.320696,0.363221,232.296,-89.5667)">
            <path d="M144.083,10.094C144.083,9.125 143.85,8.338 143.563,8.338L142.524,8.338C142.238,8.338 142.005,9.125 142.005,10.094L142.005,46.837C142.005,47.806 142.238,48.593 142.524,48.593L143.563,48.593C143.85,48.593 144.083,47.806 144.083,46.837L144.083,10.094Z" style="stroke:black;stroke-width:1.04px;"/>
        </g>
    </g>
    <g transform="matrix(1,1.38634e-17,-1.38634e-17,-0.886797,-102.045,224.847)">
        <g id="lids">
            <path d="M271.456,190.062C262.665,155.224 227.554,130.435 187.001,130.435C146.448,130.435 111.337,155.224 102.545,190.062C102.545,190.062 120.251,137.408 187.001,137.356C250.824,137.306 271.456,190.062 271.456,190.062Z" style="stroke:black;stroke-width:1.06px;"/>
        </g>
    </g>
</svg>
